<?xml version="1.0" encoding="UTF-8"?> <svg xmlns="http://www.w3.org/2000/svg" id="b" width="54.6579" height="54.6571" viewBox="0 0 54.6579 54.6571"><g id="c"><path d="m54.6579,27.32894c0,12.30446-8.13197,22.70875-19.31355,26.1337-1.57785.48389-3.21674.82793-4.90149,1.01922-1.02244.11655-2.06093.17524-3.11468.17524-.06756,0-.13589,0-.20339-.00162-1.85594-.01286-3.66608-.2114-5.41516-.57713C9.31112,51.48772,0,40.49667,0,27.32894,0,12.23613,12.23531,0,27.32817,0s27.32973,12.23613,27.32973,27.32894Z"></path><path d="m27.32895,12.5855c4.80195,0,5.37146.01798,7.26886.10491,4.87389.22181,7.15046,2.53436,7.37228,7.37227.08693,1.8959.10341,2.46542.10341,7.26736,0,4.80344-.01798,5.37146-.10341,7.26736-.22331,4.83342-2.49389,7.15046-7.37228,7.37228-1.8974.08693-2.46392.10491-7.26886.10491-4.80195,0-5.37146-.01798-7.26736-.10491-4.88587-.22331-7.15046-2.54635-7.37227-7.37377-.08693-1.8959-.10491-2.46392-.10491-7.26736,0-4.80194.01948-5.36997.10491-7.26736.22331-4.83642,2.49389-7.15046,7.37227-7.37227,1.8974-.08543,2.46542-.10341,7.26736-.10341Zm0-3.24176c-4.88438,0-5.49586.02098-7.41424.10791-6.53148.29975-10.16142,3.92369-10.46117,10.46117-.08843,1.91988-.10941,2.53136-.10941,7.41574s.02098,5.49736.10791,7.41574c.29975,6.53148,3.92369,10.16142,10.46117,10.46117,1.91988.08693,2.53136.10791,7.41574.10791s5.49736-.02098,7.41574-.10791c6.52549-.29975,10.16442-3.92369,10.45967-10.46117.08843-1.91838.10941-2.53136.10941-7.41574s-.02098-5.49586-.10791-7.41424c-.29375-6.52549-3.92219-10.16142-10.45967-10.46117-1.91988-.08843-2.53286-.10941-7.41724-.10941Zm0,8.74961c-5.10019,0-9.2352,4.13501-9.2352,9.2352s4.13501,9.2367,9.2352,9.2367,9.2352-4.13501,9.2352-9.2367c0-5.10019-4.13501-9.2352-9.2352-9.2352Zm0,15.23014c-3.3107,0-5.99494-2.68273-5.99494-5.99494,0-3.3107,2.68423-5.99494,5.99494-5.99494s5.99494,2.68423,5.99494,5.99494c0,3.3122-2.68423,5.99494-5.99494,5.99494Zm9.60089-17.75251c-1.19299,0-2.15968.96668-2.15968,2.15818s.96668,2.15818,2.15968,2.15818c1.19149,0,2.15668-.96668,2.15668-2.15818s-.96518-2.15818-2.15668-2.15818Z" fill="#fff"></path></g></svg> 