<?xml version="1.0" encoding="UTF-8"?> <svg xmlns="http://www.w3.org/2000/svg" id="b" width="54.65498" height="54.65498" viewBox="0 0 54.65498 54.65498"><g id="c"><path d="m54.65498,27.32749c0,10.09493-5.47241,18.91052-13.61374,23.64203-4.0303,2.34329-8.71562,3.68546-13.71375,3.68546-12.23186,0-22.58702-8.03751-26.0725-19.11952-.81529-2.59072-1.25499-5.34807-1.25499-8.20797C0,12.23443,12.23573,0,27.32749,0c15.09307,0,27.32749,12.23443,27.32749,27.32749Z"></path><path d="m19.19822,15.53503c.00077,2.23329-1.78692,3.93298-3.90321,3.93399-2.10511-.00127-3.90348-1.69053-3.90374-3.93399,0-2.18827,1.72616-3.93145,3.90374-3.93272,2.17326-.00101,3.9027,1.73963,3.90321,3.93272Z" fill="#fff"></path><path d="m29.12986,24.87559c0-.8087-.00002-2.50729-.00026-3.31601h-6.32903v21.49308h6.32903c.00012-2.97356-.00169-5.94738.00153-8.92094.00077-.76681-.01933-1.53387.02009-2.30068.03205-.62006.1259-1.22816.33597-1.81337.31308-.87186.8337-1.57661,1.67147-2.01354.63049-.32886,1.30879-.43695,2.01303-.43084.48324.00432.95248.07173,1.40061.25713.86446.35734,1.38965,1.02521,1.71139,1.87723.30467.80725.39725,1.65263.39929,2.5049.00847,3.61322.00408,7.22668.00387,10.84012h6.5767c.00002-4.26572.00076-8.53121-.00101-12.79669-.00026-.59285-.02314-1.18416-.09131-1.77422-.10021-.86956-.28968-1.71647-.61778-2.52931-.62031-1.53744-1.6305-2.73229-3.11021-3.50749-1.15186-.60353-2.393-.84235-3.6799-.88176-.55089-.0168-1.09848.02543-1.64247.1208-1.59644.27976-2.94771,1.01783-4.07593,2.17403-.34029.34868-.64041.73069-.91508,1.16967v-.15209Z" fill="#fff"></path><path d="m18.62547,21.55958h-6.60651v21.49308h6.60677v-10.20251c0-3.46697.00024-7.82358-.00026-11.29057Z" fill="#fff"></path></g></svg> 