<?xml version="1.0" encoding="UTF-8"?> <svg xmlns="http://www.w3.org/2000/svg" id="b" width="54.6579" height="54.6571" viewBox="0 0 54.6579 54.6571"><g id="c"><path d="m54.6579,27.32894c0,12.30446-8.13197,22.70875-19.31355,26.1337-1.57785.48389-3.21674.82793-4.90149,1.01922-1.02244.11655-2.06093.17524-3.11468.17524-.06756,0-.13589,0-.20339-.00162-1.85594-.01286-3.66608-.2114-5.41516-.57713C9.31112,51.48772,0,40.49667,0,27.32894,0,12.23613,12.23531,0,27.32817,0s27.32973,12.23613,27.32973,27.32894Z"></path><path d="m35.34435,20.97817v5.79857h7.70275l-1.03608,7.83134h-6.66667v18.85456c-1.57785.48389-3.21674.82793-4.90149,1.01922-1.02244.11655-2.06093.17524-3.11468.17524-.06756,0-.13589,0-.20339-.00162v-20.0474h-6.66666v-7.83134h6.66666v-6.64977c0-2.53838.99992-4.8517,2.6332-6.55815,1.63334-1.70645,3.90082-2.80605,6.43679-2.91696,1.352-.05869,2.70636-.02331,4.05272.10691l2.99333.29016v6.98979h-4.9562c-1.62364,0-2.94027,1.31661-2.94027,2.93946Z" fill="#fff"></path></g></svg> 